<svg width="16" height="15" viewBox="0 0 16 15" fill="none" xmlns="http://www.w3.org/2000/svg">
<path fill-rule="evenodd" clip-rule="evenodd" d="M12.3168 11.975C12.6741 11.4125 12.8073 11.125 13.0798 10.4938C11.0694 9.70626 10.7485 6.74999 12.7346 5.61874C12.1291 4.83124 11.2753 4.375 10.47 4.375C9.88865 4.375 9.489 4.53126 9.13174 4.67501C8.82897 4.79376 8.55649 4.9 8.21739 4.9C7.85407 4.9 7.53314 4.78126 7.19404 4.65626C6.82467 4.51876 6.43713 4.375 5.95271 4.375C5.05047 4.375 4.08768 4.94375 3.47609 5.91875C2.61624 7.29375 2.76762 9.86875 4.15429 12.0687C4.65082 12.8562 5.3169 13.7375 6.18281 13.75C6.54613 13.7562 6.78228 13.6438 7.04266 13.525C7.33937 13.3875 7.6603 13.2375 8.22344 13.2375C8.78659 13.2312 9.10146 13.3875 9.39817 13.525C9.65249 13.6438 9.8826 13.7562 10.2399 13.75C11.1179 13.7375 11.8203 12.7625 12.3168 11.975Z" fill="black"/>
<path fill-rule="evenodd" clip-rule="evenodd" d="M10.3427 1.25C10.4395 1.9375 10.1671 2.61876 9.80979 3.09376C9.4283 3.60626 8.76222 4.00625 8.12036 3.98125C8.00531 3.31875 8.30202 2.63749 8.66534 2.18124C9.07104 1.68124 9.75529 1.29375 10.3427 1.25Z" fill="black"/>
</svg>
