<svg width="8" height="12" viewBox="0 0 8 12" fill="none" xmlns="http://www.w3.org/2000/svg">
<path d="M1.14184 11.8398C1.45449 11.8398 1.70597 11.7383 1.92346 11.5352L7.04137 6.87598C7.33363 6.60303 7.46276 6.33643 7.46956 6C7.46956 5.66992 7.33363 5.39062 7.04137 5.12402L1.93026 0.458496C1.70597 0.261719 1.44769 0.160156 1.14184 0.160156C0.516548 0.160156 0 0.629883 0 1.21387C0 1.50586 0.135934 1.77246 0.367021 1.99463L4.80526 6.00635L0.367021 10.0054C0.129137 10.2275 0 10.4941 0 10.7861C0 11.3638 0.516548 11.8398 1.14184 11.8398Z" fill="#ABABAB"/>
</svg>
