<svg width="8" height="8" viewBox="0 0 8 8" fill="none" xmlns="http://www.w3.org/2000/svg">
<path d="M4.46942 7.00692L4.08641 7.38682C3.92423 7.54768 3.66198 7.54768 3.50152 7.38682L0.147514 4.06186C-0.014666 3.901 -0.014666 3.64089 0.147514 3.48174L3.50152 0.155067C3.6637 -0.0057906 3.92595 -0.0057906 4.08641 0.155067L4.46942 0.534965C4.63333 0.697534 4.62988 0.962778 4.46252 1.12192L2.38352 3.08644H7.34207C7.57154 3.08644 7.75615 3.26955 7.75615 3.49714V4.04474C7.75615 4.27234 7.57154 4.45544 7.34207 4.45544H2.38352L4.46252 6.41996C4.6316 6.57911 4.63505 6.84435 4.46942 7.00692Z" fill="#52665A"/>
</svg>
