<svg width="8" height="8" viewBox="0 0 8 8" fill="none" xmlns="http://www.w3.org/2000/svg">
<path d="M3.53106 7.00692L3.91408 7.38682C4.07626 7.54768 4.33851 7.54768 4.49896 7.38682L7.85297 4.06186C8.01515 3.901 8.01515 3.64089 7.85297 3.48174L4.49896 0.155067C4.33678 -0.00579061 4.07454 -0.00579061 3.91408 0.155067L3.53106 0.534965C3.36716 0.697534 3.37061 0.962778 3.53796 1.12192L5.61697 3.08644H0.658415C0.428948 3.08644 0.244339 3.26955 0.244339 3.49714V4.04474C0.244339 4.27234 0.428948 4.45544 0.658415 4.45544H5.61697L3.53796 6.41996C3.36888 6.57911 3.36543 6.84435 3.53106 7.00692Z" fill="#52665A"/>
</svg>
