<svg width="38" height="38" viewBox="0 0 38 38" fill="none" xmlns="http://www.w3.org/2000/svg">
<path d="M26.4904 5.63669V3.16669C26.4904 2.51752 25.9532 1.97919 25.3053 1.97919C24.6575 1.97919 24.1202 2.51752 24.1202 3.16669V5.54169H13.8492V3.16669C13.8492 2.51752 13.312 1.97919 12.6641 1.97919C12.0162 1.97919 11.479 2.51752 11.479 3.16669V5.63669C7.21258 6.03252 5.14258 8.58169 4.82655 12.3659C4.79495 12.825 5.17418 13.205 5.61663 13.205H32.3528C32.8111 13.205 33.1903 12.8092 33.1429 12.3659C32.8269 8.58169 30.7569 6.03252 26.4904 5.63669Z" fill="black"/>
<path d="M31.6258 15.58H6.34334C5.47425 15.58 4.76318 16.2925 4.76318 17.1634V26.9167C4.76318 31.6667 7.13341 34.8333 12.6639 34.8333H25.3052C30.8357 34.8333 33.2059 31.6667 33.2059 26.9167V17.1634C33.2059 16.2925 32.4949 15.58 31.6258 15.58ZM14.5759 28.8325C14.4969 28.8958 14.4179 28.975 14.3389 29.0225C14.2441 29.0858 14.1493 29.1333 14.0545 29.165C13.9597 29.2125 13.8649 29.2442 13.7701 29.26C13.6594 29.2758 13.5646 29.2917 13.454 29.2917C13.2486 29.2917 13.0432 29.2442 12.8536 29.165C12.6481 29.0858 12.4901 28.975 12.3321 28.8325C12.0477 28.5317 11.8739 28.12 11.8739 27.7083C11.8739 27.2967 12.0477 26.885 12.3321 26.5842C12.4901 26.4417 12.6481 26.3308 12.8536 26.2517C13.138 26.125 13.454 26.0934 13.7701 26.1567C13.8649 26.1725 13.9597 26.2042 14.0545 26.2517C14.1493 26.2833 14.2441 26.3308 14.3389 26.3942C14.4179 26.4575 14.4969 26.5209 14.5759 26.5842C14.8604 26.885 15.0342 27.2967 15.0342 27.7083C15.0342 28.12 14.8604 28.5317 14.5759 28.8325ZM14.5759 23.2908C14.2757 23.5759 13.8649 23.75 13.454 23.75C13.0432 23.75 12.6323 23.5759 12.3321 23.2908C12.0477 22.99 11.8739 22.5783 11.8739 22.1667C11.8739 21.755 12.0477 21.3433 12.3321 21.0425C12.7746 20.5992 13.4698 20.4567 14.0545 20.71C14.2599 20.7892 14.4337 20.9 14.5759 21.0425C14.8604 21.3433 15.0342 21.755 15.0342 22.1667C15.0342 22.5783 14.8604 22.99 14.5759 23.2908ZM20.1065 28.8325C19.8062 29.1175 19.3954 29.2917 18.9846 29.2917C18.5737 29.2917 18.1629 29.1175 17.8626 28.8325C17.5782 28.5317 17.4044 28.12 17.4044 27.7083C17.4044 27.2967 17.5782 26.885 17.8626 26.5842C18.4473 25.9984 19.5218 25.9984 20.1065 26.5842C20.3909 26.885 20.5647 27.2967 20.5647 27.7083C20.5647 28.12 20.3909 28.5317 20.1065 28.8325ZM20.1065 23.2908C20.0275 23.3542 19.9485 23.4175 19.8694 23.4808C19.7746 23.5442 19.6798 23.5917 19.585 23.6234C19.4902 23.6708 19.3954 23.7025 19.3006 23.7183C19.19 23.7342 19.0952 23.75 18.9846 23.75C18.5737 23.75 18.1629 23.5759 17.8626 23.2908C17.5782 22.99 17.4044 22.5783 17.4044 22.1667C17.4044 21.755 17.5782 21.3433 17.8626 21.0425C18.0049 20.9 18.1787 20.7892 18.3841 20.71C18.9688 20.4567 19.664 20.5992 20.1065 21.0425C20.3909 21.3433 20.5647 21.755 20.5647 22.1667C20.5647 22.5783 20.3909 22.99 20.1065 23.2908ZM25.637 28.8325C25.3368 29.1175 24.9259 29.2917 24.5151 29.2917C24.1043 29.2917 23.6934 29.1175 23.3932 28.8325C23.1088 28.5317 22.9349 28.12 22.9349 27.7083C22.9349 27.2967 23.1088 26.885 23.3932 26.5842C23.9778 25.9984 25.0523 25.9984 25.637 26.5842C25.9214 26.885 26.0952 27.2967 26.0952 27.7083C26.0952 28.12 25.9214 28.5317 25.637 28.8325ZM25.637 23.2908C25.558 23.3542 25.479 23.4175 25.4 23.4808C25.3052 23.5442 25.2104 23.5917 25.1155 23.6234C25.0207 23.6708 24.9259 23.7025 24.8311 23.7183C24.7205 23.7342 24.6099 23.75 24.5151 23.75C24.1043 23.75 23.6934 23.5759 23.3932 23.2908C23.1088 22.99 22.9349 22.5783 22.9349 22.1667C22.9349 21.755 23.1088 21.3433 23.3932 21.0425C23.5512 20.9 23.7092 20.7892 23.9146 20.71C24.1991 20.5833 24.5151 20.5517 24.8311 20.615C24.9259 20.6309 25.0207 20.6625 25.1155 20.71C25.2104 20.7417 25.3052 20.7892 25.4 20.8525C25.479 20.9159 25.558 20.9792 25.637 21.0425C25.9214 21.3433 26.0952 21.755 26.0952 22.1667C26.0952 22.5783 25.9214 22.99 25.637 23.2908Z" fill="black"/>
</svg>
