<svg width="7" height="7" viewBox="0 0 7 7" fill="none" xmlns="http://www.w3.org/2000/svg">
<path d="M2.3335 0.583374V1.45837" stroke="#6B7280" stroke-width="0.4" stroke-miterlimit="10" stroke-linecap="round" stroke-linejoin="round"/>
<path d="M4.6665 0.583374V1.45837" stroke="#6B7280" stroke-width="0.4" stroke-miterlimit="10" stroke-linecap="round" stroke-linejoin="round"/>
<path d="M1.021 2.65125H5.97933" stroke="#6B7280" stroke-width="0.4" stroke-miterlimit="10" stroke-linecap="round" stroke-linejoin="round"/>
<path d="M6.41683 5.54167C6.41683 5.76042 6.35558 5.9675 6.24766 6.1425C6.04641 6.48083 5.676 6.70833 5.25016 6.70833C4.95558 6.70833 4.68725 6.60042 4.48308 6.41667C4.39266 6.34083 4.31391 6.2475 4.25266 6.1425C4.14475 5.9675 4.0835 5.76042 4.0835 5.54167C4.0835 4.89708 4.60558 4.375 5.25016 4.375C5.60016 4.375 5.91225 4.52958 6.12516 4.77166C6.306 4.97875 6.41683 5.24708 6.41683 5.54167Z" stroke="#6B7280" stroke-width="0.4" stroke-miterlimit="10" stroke-linecap="round" stroke-linejoin="round"/>
<path d="M4.79492 5.5417L5.08367 5.83044L5.70492 5.25586" stroke="#6B7280" stroke-width="0.3" stroke-linecap="round" stroke-linejoin="round"/>
<path d="M6.125 2.47921V4.7717C5.91208 4.52962 5.6 4.37504 5.25 4.37504C4.60542 4.37504 4.08333 4.89712 4.08333 5.54171C4.08333 5.76046 4.14458 5.96754 4.2525 6.14254C4.31375 6.24754 4.3925 6.34087 4.48292 6.41671H2.33333C1.3125 6.41671 0.875 5.83337 0.875 4.95837V2.47921C0.875 1.60421 1.3125 1.02087 2.33333 1.02087H4.66667C5.6875 1.02087 6.125 1.60421 6.125 2.47921Z" stroke="#6B7280" stroke-width="0.4" stroke-miterlimit="10" stroke-linecap="round" stroke-linejoin="round"/>
<path d="M3.49872 3.99581H3.50134" stroke="#6B7280" stroke-width="0.7" stroke-linecap="round" stroke-linejoin="round"/>
<path d="M2.41913 3.99581H2.42175" stroke="#6B7280" stroke-width="0.7" stroke-linecap="round" stroke-linejoin="round"/>
<path d="M2.41913 4.87081H2.42175" stroke="#6B7280" stroke-width="0.7" stroke-linecap="round" stroke-linejoin="round"/>
</svg>
