<svg width="9" height="9" viewBox="0 0 9 9" fill="none" xmlns="http://www.w3.org/2000/svg">
<path fill-rule="evenodd" clip-rule="evenodd" d="M6.46767 0.223083H2.69332C1.44779 0.223083 0.428711 1.24216 0.428711 2.48769V6.26204C0.428711 7.50758 1.44779 8.52666 2.69332 8.52666H6.46767C7.71321 8.52666 8.73228 7.50758 8.73228 6.26204V2.48769C8.73228 1.24216 7.71321 0.223083 6.46767 0.223083ZM7.97743 6.26207C7.97743 7.09243 7.29804 7.77181 6.46769 7.77181H2.69334C1.86298 7.77181 1.1836 7.09243 1.1836 6.26207V2.48772C1.1836 1.65736 1.86298 0.977977 2.69334 0.977977H6.46769C7.29804 0.977977 7.97743 1.65736 7.97743 2.48772V6.26207ZM4.31621 2.48779C4.50493 2.45005 4.69365 2.45005 4.88237 2.48779C5.71272 2.60102 6.35436 3.24266 6.42985 4.07302C6.50534 4.56368 6.39211 5.05435 6.09016 5.46953C5.78821 5.88471 5.33529 6.14891 4.84462 6.2244C4.76914 6.26214 4.65591 6.26214 4.58042 6.26214C3.67457 6.26214 2.88196 5.58276 2.73099 4.63917C2.58001 3.6201 3.29714 2.63876 4.31621 2.48779ZM5.52406 5.01638C5.33534 5.24284 5.07113 5.43156 4.76919 5.4693C4.16529 5.54479 3.56139 5.12961 3.48591 4.52571C3.37268 3.92182 3.8256 3.31792 4.42949 3.24243H4.58047H4.73144C5.22211 3.31792 5.59954 3.69536 5.67503 4.18602C5.75052 4.48797 5.67503 4.78992 5.52406 5.01638ZM7.01004 2.19755C7.00245 2.17924 6.99598 2.1636 6.99598 2.14797C6.99598 2.11022 6.95823 2.07248 6.92049 2.03474C6.76952 1.88376 6.54306 1.88376 6.39208 2.03474C6.35434 2.07248 6.31659 2.11022 6.31659 2.14797C6.27885 2.18571 6.27885 2.2612 6.27885 2.29894C6.27885 2.37443 6.31659 2.48766 6.39208 2.56315C6.46757 2.63863 6.5808 2.67638 6.65629 2.67638C6.73177 2.67638 6.845 2.63863 6.92049 2.56315C6.99598 2.48766 7.03372 2.41217 7.03372 2.29894C7.03372 2.25472 7.02077 2.22346 7.01004 2.19755Z" fill="#5E5873"/>
</svg>
