<svg width="15" height="15" viewBox="0 0 15 15" fill="none" xmlns="http://www.w3.org/2000/svg">
<path d="M9.63352 4.09375H3.91732C3.74777 4.09375 3.59033 4.1 3.44501 4.10625C2.0099 4.19375 1.62842 4.7375 1.62842 6.425V6.7875C1.62842 7.13125 1.90091 7.4125 2.23395 7.4125H11.3169C11.6499 7.4125 11.9224 7.13125 11.9224 6.7875V6.425C11.9224 4.5625 11.4622 4.09375 9.63352 4.09375Z" fill="#292D32"/>
<path d="M2.23395 8.34998C1.90091 8.34998 1.62842 8.63123 1.62842 8.97498V10.7937C1.62842 12.6562 2.08862 13.125 3.91732 13.125H9.63352C11.4319 13.125 11.9043 12.675 11.9224 10.8937V8.97498C11.9224 8.63123 11.6499 8.34998 11.3169 8.34998H2.23395ZM4.63184 11.6H3.59639C3.34812 11.6 3.14224 11.3875 3.14224 11.1312C3.14224 10.875 3.34812 10.6625 3.59639 10.6625H4.6379C4.88617 10.6625 5.09205 10.875 5.09205 11.1312C5.09205 11.3875 4.88617 11.6 4.63184 11.6ZM8.01675 11.6H5.93373C5.68547 11.6 5.47959 11.3875 5.47959 11.1312C5.47959 10.875 5.68547 10.6625 5.93373 10.6625H8.01675C8.26502 10.6625 8.4709 10.875 8.4709 11.1312C8.4709 11.3875 8.27108 11.6 8.01675 11.6Z" fill="#292D32"/>
<path d="M13.7389 8.33125V5.05625C13.7389 3.1 12.655 2.25 11.0201 2.25H5.61269C5.15249 2.25 4.74073 2.31875 4.37741 2.4625C4.09281 2.56875 3.83849 2.725 3.63261 2.93125C3.52361 3.0375 3.60839 3.2125 3.76582 3.2125H10.3479C11.7104 3.2125 12.8124 4.35 12.8124 5.75625V10.2375C12.8124 10.3937 12.9759 10.4812 13.0849 10.3687C13.5027 9.9125 13.7389 9.24375 13.7389 8.33125Z" fill="#292D32"/>
</svg>
