<svg width="15" height="15" viewBox="0 0 15 15" fill="none" xmlns="http://www.w3.org/2000/svg">
<path d="M1.29541 7.1625V10.2875C1.29541 11.7187 2.41564 12.875 3.8023 12.875H10.8931C12.2797 12.875 13.406 11.7125 13.406 10.2813V7.1625C13.406 6.74375 13.079 6.40625 12.6733 6.40625H2.0281C1.6224 6.40625 1.29541 6.74375 1.29541 7.1625ZM4.92859 10.7812H3.71753C3.46926 10.7812 3.26338 10.5687 3.26338 10.3125C3.26338 10.0563 3.46926 9.84375 3.71753 9.84375H4.92859C5.17686 9.84375 5.38274 10.0563 5.38274 10.3125C5.38274 10.5687 5.17686 10.7812 4.92859 10.7812ZM8.86453 10.7812H6.44241C6.19415 10.7812 5.98827 10.5687 5.98827 10.3125C5.98827 10.0563 6.19415 9.84375 6.44241 9.84375H8.86453C9.1128 9.84375 9.31868 10.0563 9.31868 10.3125C9.31868 10.5687 9.1128 10.7812 8.86453 10.7812Z" fill="#292D32"/>
<path d="M8.259 2.88125V4.7125C8.259 5.13125 7.93202 5.46875 7.52631 5.46875H2.0281C1.61634 5.46875 1.29541 5.11875 1.29541 4.7C1.30147 3.99375 1.57395 3.35 2.0281 2.88125C2.48225 2.4125 3.112 2.125 3.8023 2.125H7.52631C7.93202 2.125 8.259 2.4625 8.259 2.88125Z" fill="#292D32"/>
<path d="M12.177 1.25H10.3967C9.62768 1.25 9.16748 1.725 9.16748 2.51875V4.35625C9.16748 5.15 9.62768 5.625 10.3967 5.625H12.177C12.946 5.625 13.4062 5.15 13.4062 4.35625V2.51875C13.4062 1.725 12.946 1.25 12.177 1.25ZM12.7462 3.70625C12.6856 3.76875 12.5948 3.8125 12.4979 3.81875H11.6441L11.6502 4.6875C11.6441 4.79375 11.6078 4.88125 11.5351 4.95625C11.4745 5.01875 11.3837 5.0625 11.2868 5.0625C11.087 5.0625 10.9235 4.89375 10.9235 4.6875V3.8125L10.0758 3.81875C9.87595 3.81875 9.71246 3.64375 9.71246 3.4375C9.71246 3.23125 9.87595 3.0625 10.0758 3.0625L10.9235 3.06875V2.19375C10.9235 1.9875 11.087 1.8125 11.2868 1.8125C11.4867 1.8125 11.6502 1.9875 11.6502 2.19375L11.6441 3.0625H12.4979C12.6977 3.0625 12.8612 3.23125 12.8612 3.4375C12.8552 3.54375 12.8128 3.63125 12.7462 3.70625Z" fill="#292D32"/>
</svg>
