<svg width="28" height="28" viewBox="0 0 28 28" fill="none" xmlns="http://www.w3.org/2000/svg">
<path d="M12.8335 2.33334H10.5002C4.66683 2.33334 2.3335 4.66668 2.3335 10.5V17.5C2.3335 23.3333 4.66683 25.6667 10.5002 25.6667H17.5002C23.3335 25.6667 25.6668 23.3333 25.6668 17.5V15.1667" stroke="white" stroke-width="1.5" stroke-linecap="round" stroke-linejoin="round"/>
<path d="M18.7132 3.52332L9.51986 12.7167C9.16986 13.0667 8.81986 13.755 8.74986 14.2567L8.24819 17.7683C8.06153 19.04 8.95986 19.9267 10.2315 19.7517L13.7432 19.25C14.2332 19.18 14.9215 18.83 15.2832 18.48L24.4765 9.28666C26.0632 7.69999 26.8099 5.85666 24.4765 3.52332C22.1432 1.18999 20.2999 1.93666 18.7132 3.52332Z" stroke="white" stroke-width="1.5" stroke-miterlimit="10" stroke-linecap="round" stroke-linejoin="round"/>
<path d="M17.395 4.84167C18.1767 7.63001 20.3584 9.81168 23.1584 10.605" stroke="white" stroke-width="1.5" stroke-miterlimit="10" stroke-linecap="round" stroke-linejoin="round"/>
</svg>
