<svg width="40" height="39" viewBox="0 0 40 39" fill="none" xmlns="http://www.w3.org/2000/svg">
<path d="M0.763184 16.3793V31.0419C0.763184 32.2485 1.00179 33.4384 1.46528 34.5523C1.7068 35.1328 2.06538 35.6573 2.51863 36.0931L2.742 36.3078C3.87135 37.3936 5.37715 38 6.94376 38H12.1166C13.2212 38 14.1166 37.1046 14.1166 36V29.7297C14.1166 28.6252 15.012 27.7297 16.1166 27.7297H23.3334C24.438 27.7297 25.3334 28.6252 25.3334 29.7297V36C25.3334 37.1046 26.2289 38 27.3334 38H32.0383C33.5759 38 35.0676 37.4761 36.2676 36.5148L36.7711 36.1114C37.3271 35.6659 37.762 35.0876 38.0357 34.4298C38.4656 33.3967 38.6868 32.2888 38.6868 31.1698V16.3482C38.6868 15.1062 38.1099 13.9347 37.1255 13.1775L23.5989 2.77407C21.4663 1.13385 18.5026 1.11375 16.3479 2.7249L2.3678 13.1785C1.35786 13.9337 0.763184 15.1183 0.763184 16.3793Z" stroke="black" stroke-width="1.5"/>
</svg>
