<svg width="39" height="38" viewBox="0 0 39 38" fill="none" xmlns="http://www.w3.org/2000/svg">
<path d="M14.0061 35.6693V29.8597C14.0061 28.3766 15.2783 27.1744 16.8477 27.1744H22.5845C23.3381 27.1744 24.0609 27.4573 24.5938 27.9609C25.1267 28.4645 25.4261 29.1475 25.4261 29.8597V35.6693C25.4213 36.2859 25.6772 36.8788 26.1369 37.3163C26.5965 37.7539 27.222 38 27.8745 38H31.7884C33.6163 38.0045 35.371 37.3214 36.6653 36.1015C37.9595 34.8817 38.6869 33.2253 38.6868 31.4979V14.947C38.6868 13.5517 38.0323 12.2281 36.8997 11.3329L23.5853 1.28415C21.2692 -0.477733 17.9508 -0.420846 15.7039 1.41926L2.69332 11.3329C1.50717 12.2017 0.798218 13.5292 0.763184 14.947V31.481C0.763184 35.0813 3.85173 38 7.66164 38H11.4862C12.8413 38 13.9426 36.9668 13.9525 35.6862L14.0061 35.6693Z" fill="black"/>
</svg>
