<svg width="39" height="38" viewBox="0 0 39 38" fill="none" xmlns="http://www.w3.org/2000/svg">
<path d="M19.3673 17.2109C19.2093 17.195 19.0197 17.195 18.8459 17.2109C15.0851 17.0842 12.0986 13.9967 12.0986 10.1967C12.0986 6.31752 15.2273 3.16669 19.1145 3.16669C22.9859 3.16669 26.1304 6.31752 26.1304 10.1967C26.1146 13.9967 23.1281 17.0842 19.3673 17.2109Z" stroke="black" stroke-width="1.5" stroke-linecap="round" stroke-linejoin="round"/>
<path d="M11.4666 23.0533C7.64264 25.6183 7.64264 29.7983 11.4666 32.3475C15.812 35.2608 22.9385 35.2608 27.2839 32.3475C31.1079 29.7825 31.1079 25.6025 27.2839 23.0533C22.9543 20.1558 15.8278 20.1558 11.4666 23.0533Z" stroke="black" stroke-width="1.5" stroke-linecap="round" stroke-linejoin="round"/>
</svg>
