<svg width="39" height="38" viewBox="0 0 39 38" fill="none" xmlns="http://www.w3.org/2000/svg">
<path d="M19.1146 3.16669C14.9746 3.16669 11.6089 6.53919 11.6089 10.6875C11.6089 14.7567 14.785 18.05 18.925 18.1925C19.0514 18.1767 19.1778 18.1767 19.2726 18.1925C19.3042 18.1925 19.32 18.1925 19.3516 18.1925C19.3674 18.1925 19.3674 18.1925 19.3832 18.1925C23.4284 18.05 26.6045 14.7567 26.6203 10.6875C26.6203 6.53919 23.2546 3.16669 19.1146 3.16669Z" fill="black"/>
<path d="M27.1417 22.4042C22.7331 19.4592 15.5434 19.4592 11.1031 22.4042C9.09634 23.75 7.99023 25.5708 7.99023 27.5183C7.99023 29.4658 9.09634 31.2709 11.0873 32.6009C13.2995 34.0892 16.207 34.8334 19.1145 34.8334C22.022 34.8334 24.9295 34.0892 27.1417 32.6009C29.1327 31.255 30.2388 29.45 30.2388 27.4867C30.223 25.5392 29.1327 23.7342 27.1417 22.4042Z" fill="black"/>
</svg>
