<svg width="20" height="20" viewBox="0 0 20 20" fill="none" xmlns="http://www.w3.org/2000/svg">
<path fill-rule="evenodd" clip-rule="evenodd" d="M15.7207 4.26989C16.0848 4.39739 16.3282 4.74072 16.3282 5.12655V10.7707C16.3282 12.3482 15.7548 13.8541 14.7423 15.0207C14.2332 15.6082 13.589 16.0657 12.9048 16.4357L9.93984 18.0374L6.96984 16.4349C6.28484 16.0649 5.63984 15.6082 5.12984 15.0199C4.1165 13.8532 3.5415 12.3466 3.5415 10.7674V5.12655C3.5415 4.74072 3.78484 4.39739 4.149 4.26989L9.634 2.34239C9.829 2.27405 10.0415 2.27405 10.2357 2.34239L15.7207 4.26989Z" stroke="#292D32" stroke-linecap="round" stroke-linejoin="round"/>
<path opacity="0.4" d="M7.76855 9.93158L9.34522 11.5091L12.5936 8.26074" stroke="#292D32" stroke-linecap="round" stroke-linejoin="round"/>
</svg>
