<svg width="8" height="8" viewBox="0 0 8 8" fill="none" xmlns="http://www.w3.org/2000/svg">
<path d="M4.46932 0.578267L5.14048 1.99782C5.23091 2.19414 5.47367 2.38039 5.67835 2.42066L6.89213 2.63208C7.668 2.768 7.84888 3.36199 7.29197 3.95599L6.34474 4.95773C6.18766 5.12384 6.09722 5.45105 6.14958 5.68764L6.4209 6.92597C6.6351 7.90254 6.14006 8.28511 5.32611 7.77166L4.18849 7.05685C3.98381 6.92597 3.64109 6.92597 3.43642 7.05685L2.29879 7.77166C1.48484 8.28008 0.989807 7.90254 1.204 6.92597L1.47532 5.68764C1.51816 5.44601 1.42772 5.11881 1.27064 4.95269L0.323416 3.95095C-0.233497 3.36199 -0.0526194 2.768 0.723251 2.62705L1.93704 2.41563C2.14171 2.38039 2.38447 2.1891 2.47491 1.99278L3.14606 0.573233C3.51258 -0.191915 4.10281 -0.191914 4.46932 0.578267Z" fill="#566F4C"/>
</svg>
