<svg width="8" height="8" viewBox="0 0 8 8" fill="none" xmlns="http://www.w3.org/2000/svg">
<path d="M4.60698 0.578266L5.27075 1.99782C5.3602 2.19414 5.60029 2.38039 5.80272 2.42066L7.00316 2.63208C7.77051 2.768 7.9494 3.36199 7.39861 3.95599L6.46179 4.95773C6.30643 5.12384 6.21699 5.45104 6.26877 5.68764L6.53711 6.92597C6.74895 7.90254 6.25936 8.28511 5.45435 7.77166L4.32923 7.05685C4.1268 6.92597 3.78785 6.92597 3.58542 7.05685L2.4603 7.77166C1.65529 8.28008 1.1657 7.90254 1.37754 6.92597L1.64588 5.68764C1.68825 5.44601 1.5988 5.11881 1.44345 4.95269L0.506629 3.95095C-0.0441637 3.36199 0.134726 2.768 0.902071 2.62705L2.10252 2.41563C2.30495 2.38039 2.54504 2.1891 2.63448 1.99278L3.29826 0.573233C3.66074 -0.191915 4.24449 -0.191914 4.60698 0.578266Z" fill="white"/>
</svg>
