<svg width="13" height="13" viewBox="0 0 13 13" fill="none" xmlns="http://www.w3.org/2000/svg">
<path d="M11.375 3.2391C9.57125 3.06035 7.75667 2.96826 5.9475 2.96826C4.875 2.96826 3.8025 3.02243 2.73 3.13076L1.625 3.2391" stroke="#FE5858" stroke-linecap="round" stroke-linejoin="round"/>
<path d="M4.60449 2.692L4.72366 1.98242C4.81033 1.46784 4.87533 1.08325 5.79074 1.08325H7.20991C8.12533 1.08325 8.19574 1.4895 8.27699 1.98784L8.39616 2.692" stroke="#FE5858" stroke-linecap="round" stroke-linejoin="round"/>
<path d="M10.2109 4.95093L9.85879 10.4055C9.79921 11.2559 9.75046 11.9168 8.23921 11.9168H4.76171C3.25046 11.9168 3.20171 11.2559 3.14212 10.4055L2.79004 4.95093" stroke="#FE5858" stroke-linecap="round" stroke-linejoin="round"/>
<path d="M5.5957 8.9375H7.39945" stroke="#FE5858" stroke-linecap="round" stroke-linejoin="round"/>
<path d="M5.14551 6.77087H7.85384" stroke="#FE5858" stroke-linecap="round" stroke-linejoin="round"/>
</svg>
