<svg width="38" height="38" viewBox="0 0 38 38" fill="none" xmlns="http://www.w3.org/2000/svg">
<path d="M28.5635 21.4541C27.8985 22.1033 27.5185 23.0375 27.6135 24.035C27.756 25.745 29.3235 26.9958 31.0335 26.9958H34.0418V28.88C34.0418 32.1575 31.366 34.8333 28.0885 34.8333H9.91183C6.63433 34.8333 3.9585 32.1575 3.9585 28.88V18.2242C3.9585 14.9467 6.63433 12.2708 9.91183 12.2708H28.0885C31.366 12.2708 34.0418 14.9467 34.0418 18.2242V20.5042H30.8435C29.9568 20.5042 29.1493 20.8525 28.5635 21.4541Z" stroke="#292D32" stroke-width="1.5" stroke-linecap="round" stroke-linejoin="round"/>
<path d="M3.9585 19.6491V12.4134C3.9585 10.5292 5.11433 8.85081 6.87183 8.18581L19.4435 3.43581C21.4068 2.69164 23.5127 4.14835 23.5127 6.25419V12.2708" stroke="#292D32" stroke-width="1.5" stroke-linecap="round" stroke-linejoin="round"/>
<path d="M35.7183 22.1194V25.3811C35.7183 26.252 35.0216 26.9644 34.1349 26.9961H31.0316C29.3216 26.9961 27.7541 25.7453 27.6116 24.0353C27.5166 23.0378 27.8966 22.1036 28.5616 21.4544C29.1474 20.8528 29.9549 20.5045 30.8416 20.5045H34.1349C35.0216 20.5361 35.7183 21.2486 35.7183 22.1194Z" stroke="#292D32" stroke-width="1.5" stroke-linecap="round" stroke-linejoin="round"/>
<path d="M11.0835 19H22.1668" stroke="#292D32" stroke-width="1.5" stroke-linecap="round" stroke-linejoin="round"/>
</svg>
