<svg width="38" height="38" viewBox="0 0 38 38" fill="none" xmlns="http://www.w3.org/2000/svg">
<path d="M23.5127 6.25418V12.2708H21.1377V6.25418C21.1377 5.82668 20.7577 5.62085 20.5043 5.62085C20.4252 5.62085 20.346 5.63668 20.2668 5.66835L7.711 10.4025C6.87183 10.7192 6.3335 11.5108 6.3335 12.4133V13.4742C4.89266 14.5508 3.9585 16.2767 3.9585 18.2242V12.4133C3.9585 10.5292 5.11433 8.85085 6.87183 8.18585L19.4435 3.43585C19.7918 3.30918 20.156 3.24585 20.5043 3.24585C22.0877 3.24585 23.5127 4.52835 23.5127 6.25418Z" fill="#292D32"/>
<path d="M34.0419 22.9584V24.5417C34.0419 24.9692 33.7094 25.3175 33.2661 25.3334H30.9544C30.1152 25.3334 29.3552 24.7159 29.2919 23.8925C29.2444 23.4017 29.4344 22.9425 29.7511 22.6259C30.0361 22.325 30.4319 22.1667 30.8594 22.1667H33.2502C33.7094 22.1825 34.0419 22.5309 34.0419 22.9584Z" fill="#292D32"/>
<path d="M30.8435 20.5041H32.4585C33.3293 20.5041 34.0418 19.7916 34.0418 18.9208V18.2241C34.0418 14.9466 31.366 12.2708 28.0885 12.2708H9.91183C8.566 12.2708 7.331 12.7141 6.3335 13.4741C4.89266 14.5508 3.9585 16.2766 3.9585 18.2241V28.88C3.9585 32.1575 6.63433 34.8333 9.91183 34.8333H28.0885C31.366 34.8333 34.0418 32.1575 34.0418 28.88V28.5791C34.0418 27.7083 33.3293 26.9958 32.4585 26.9958H31.081C29.561 26.9958 28.1043 26.0616 27.7085 24.5891C27.376 23.3858 27.7718 22.23 28.5635 21.4541C29.1493 20.8525 29.9568 20.5041 30.8435 20.5041ZM22.1668 20.1875H11.0835C10.4343 20.1875 9.896 19.6491 9.896 19C9.896 18.3508 10.4343 17.8125 11.0835 17.8125H22.1668C22.816 17.8125 23.3543 18.3508 23.3543 19C23.3543 19.6491 22.816 20.1875 22.1668 20.1875Z" fill="#292D32"/>
</svg>
